<svg id="Layer_1" data-name="Layer 1" xmlns="http://www.w3.org/2000/svg" viewBox="0 0 183.29 186.75"><defs><style>.cls-1{fill:silver;}.cls-2,.cls-7{fill:none;stroke-linecap:round;stroke-miterlimit:10;stroke-width:4px;}.cls-2{stroke:#705fa0;}.cls-3{fill:#9f8fe2;}.cls-4{fill:#522a7f;}.cls-5{fill:#5d2689;}.cls-6{fill:#b1a1e5;}.cls-7{stroke:#8474a8;}.cls-8{fill:#352260;}.cls-9{fill:#bbafef;}</style></defs><path class="cls-1" d="M504.68,291.8" transform="translate(-365.36 -187.26)"/><path class="cls-2" d="M546.65,208.57c-4.06-9.23-20.16-11-36-4.07" transform="translate(-365.36 -187.26)"/><path class="cls-3" d="M403.68,220.44c-10.79-7.33-28.26-3-35.18,4.29-6.1,6.4-4.89,26.67,17.94,31.47,20.36,4.28,72.09,1.6,71.31.22C455,251.58,416.76,229.32,403.68,220.44Z" transform="translate(-365.36 -187.26)"/><path class="cls-4" d="M486.68,259.8a28,28,0,0,1-28,28,28.87,28.87,0,0,1-25.05-15.47,25.19,25.19,0,0,1-2.95-12.53c.48-12.05,10.75-28,28-28A28,28,0,0,1,486.68,259.8Z" transform="translate(-365.36 -187.26)"/><path class="cls-5" d="M424.68,275.8c-41,19-40.8,78.45,6,96,8,3,22.13,3.19,28-1,2-1.43-3-4.25-6-19-1.11-5.41,23-46,9-64C450.82,273.84,428.46,274.05,424.68,275.8Z" transform="translate(-365.36 -187.26)"/><path class="cls-1" d="M533.11,225a35.62,35.62,0,0,1-36,35.18c-13.81-.12-26.12-8.75-31.79-19.89a31.71,31.71,0,0,1-3.62-15.92c.74-15.27,14-35.37,36-35.18A35.61,35.61,0,0,1,533.11,225Z" transform="translate(-365.36 -187.26)"/><path class="cls-1" d="M476.68,230.8" transform="translate(-365.36 -187.26)"/><path class="cls-6" d="M421.3,201.34c-7-11-24.76-13.93-34-10-8.13,3.46-15.05,22.55,4,36,17,12,65.56,30,65.38,28.46C456.06,250.27,429.79,214.68,421.3,201.34Z" transform="translate(-365.36 -187.26)"/><path class="cls-7" d="M545.68,193.8c-6.36-7.81-22.37-5.29-35.78,5.64" transform="translate(-365.36 -187.26)"/><path class="cls-8" d="M458.68,370.8c1.79-1.27-2-3.65-4.94-14.57-8.05,2.45-14.26,10.28-16.85,17.15C444.66,374.66,454.14,374.05,458.68,370.8Z" transform="translate(-365.36 -187.26)"/><path class="cls-8" d="M397.32,306.13l67,10a53.29,53.29,0,0,0,1.55-16.76l-60-8.93A50.39,50.39,0,0,0,397.32,306.13Z" transform="translate(-365.36 -187.26)"/><path class="cls-8" d="M395.19,315.28a51.68,51.68,0,0,0,.52,17.05L456,341.08c1.79-4.58,4-10.17,5.91-16.13Z" transform="translate(-365.36 -187.26)"/><path class="cls-9" d="M533.05,227.53c-10.65-11.14-23.07-21.27-31.29-18.75-13.74,4.2-17,7.28-22,29.13s26,22.89,26,22.89l3.69-.64A36.82,36.82,0,0,0,533.05,227.53Z" transform="translate(-365.36 -187.26)"/><path class="cls-5" d="M503.25,210.34a13.6,13.6,0,0,0-3.22-1.05c-12.29,3.8-15.49,7.39-20.27,27.47a17.34,17.34,0,0,0-.41,6.21,29.05,29.05,0,0,0,10.75,8.48c11.56,5.43,24.16,3,28.14-5.5S514.81,215.77,503.25,210.34Z" transform="translate(-365.36 -187.26)"/><rect class="cls-1" x="471.57" y="213.39" width="12.46" height="71.8" rx="5" transform="translate(-382.71 274.78) rotate(-50.81)"/><ellipse cx="499.01" cy="228.3" rx="7.62" ry="12.06" transform="translate(-368.4 262.57) rotate(-48.39)"/></svg>